<svg width="106" height="106" viewBox="0 0 106 106" fill="none" xmlns="http://www.w3.org/2000/svg">
<g id="Frame 19">
<path id="del" fill-rule="evenodd" clip-rule="evenodd" d="M53 106C82.2711 106 106 82.2711 106 53C106 23.7289 82.2711 0 53 0C23.7289 0 0 23.7289 0 53C0 82.2711 23.7289 106 53 106ZM26.1299 32.8474C24.275 30.9924 24.275 27.985 26.1299 26.1299C27.9849 24.2749 30.9925 24.2749 32.8475 26.1299L53 46.2825L73.1525 26.1299C75.0075 24.2749 78.0151 24.2749 79.8701 26.1299C81.7251 27.985 81.7251 30.9924 79.8701 32.8474L59.7175 53L79.8701 73.1526C81.7251 75.0076 81.7251 78.015 79.8701 79.8701C78.0151 81.7251 75.0075 81.7251 73.1525 79.8701L53 59.7175L32.8474 79.87C30.9925 81.7251 27.9849 81.7251 26.1299 79.87C24.275 78.015 24.275 75.0076 26.1299 73.1526L46.2825 53L26.1299 32.8474Z" fill="#D45252"/>
</g>
</svg>
